<svg width="50" height="50" viewBox="0 0 50 50" fill="none" xmlns="http://www.w3.org/2000/svg">
<g clip-path="url(#clip0_13_66)">
<path d="M10.4166 29.1667C11.5672 29.1667 12.4999 28.2339 12.4999 27.0833C12.4999 25.9327 11.5672 25 10.4166 25C9.26599 25 8.33325 25.9327 8.33325 27.0833C8.33325 28.2339 9.26599 29.1667 10.4166 29.1667Z" fill="#23D0C1"/>
<path d="M2.08333 20.8333C3.23393 20.8333 4.16667 19.9006 4.16667 18.75C4.16667 17.5994 3.23393 16.6667 2.08333 16.6667C0.93274 16.6667 0 17.5994 0 18.75C0 19.9006 0.93274 20.8333 2.08333 20.8333Z" fill="#23D0C1"/>
<path d="M10.4166 12.5C11.5672 12.5 12.4999 11.5673 12.4999 10.4167C12.4999 9.26608 11.5672 8.33334 10.4166 8.33334C9.26599 8.33334 8.33325 9.26608 8.33325 10.4167C8.33325 11.5673 9.26599 12.5 10.4166 12.5Z" fill="#23D0C1"/>
<path d="M2.08333 4.16667C3.23393 4.16667 4.16667 3.23393 4.16667 2.08333C4.16667 0.93274 3.23393 0 2.08333 0C0.93274 0 0 0.93274 0 2.08333C0 3.23393 0.93274 4.16667 2.08333 4.16667Z" fill="#23D0C1"/>
<path d="M47.9166 29.1667C49.0672 29.1667 49.9999 28.2339 49.9999 27.0833C49.9999 25.9327 49.0672 25 47.9166 25C46.766 25 45.8333 25.9327 45.8333 27.0833C45.8333 28.2339 46.766 29.1667 47.9166 29.1667Z" fill="#23D0C1"/>
<path d="M39.5833 20.8333C40.7339 20.8333 41.6667 19.9006 41.6667 18.75C41.6667 17.5994 40.7339 16.6667 39.5833 16.6667C38.4327 16.6667 37.5 17.5994 37.5 18.75C37.5 19.9006 38.4327 20.8333 39.5833 20.8333Z" fill="#23D0C1"/>
<path d="M47.9166 12.5C49.0672 12.5 49.9999 11.5673 49.9999 10.4167C49.9999 9.26608 49.0672 8.33334 47.9166 8.33334C46.766 8.33334 45.8333 9.26608 45.8333 10.4167C45.8333 11.5673 46.766 12.5 47.9166 12.5Z" fill="#23D0C1"/>
<path d="M39.5833 4.16667C40.7339 4.16667 41.6667 3.23393 41.6667 2.08333C41.6667 0.93274 40.7339 0 39.5833 0C38.4327 0 37.5 0.93274 37.5 2.08333C37.5 3.23393 38.4327 4.16667 39.5833 4.16667Z" fill="#23D0C1"/>
<path d="M29.1666 50C30.3172 50 31.2499 49.0673 31.2499 47.9167C31.2499 46.7661 30.3172 45.8333 29.1666 45.8333C28.016 45.8333 27.0833 46.7661 27.0833 47.9167C27.0833 49.0673 28.016 50 29.1666 50Z" fill="#23D0C1"/>
<path d="M20.8333 41.6667C21.9839 41.6667 22.9167 40.7339 22.9167 39.5833C22.9167 38.4327 21.9839 37.5 20.8333 37.5C19.6827 37.5 18.75 38.4327 18.75 39.5833C18.75 40.7339 19.6827 41.6667 20.8333 41.6667Z" fill="#23D0C1"/>
<path d="M29.1666 33.3333C30.3172 33.3333 31.2499 32.4006 31.2499 31.25C31.2499 30.0994 30.3172 29.1667 29.1666 29.1667C28.016 29.1667 27.0833 30.0994 27.0833 31.25C27.0833 32.4006 28.016 33.3333 29.1666 33.3333Z" fill="#23D0C1"/>
<path d="M20.8333 25C21.9839 25 22.9167 24.0673 22.9167 22.9167C22.9167 21.7661 21.9839 20.8333 20.8333 20.8333C19.6827 20.8333 18.75 21.7661 18.75 22.9167C18.75 24.0673 19.6827 25 20.8333 25Z" fill="#23D0C1"/>
<path d="M31.2501 6.25C30.145 6.25 29.0852 5.81102 28.3038 5.02961C27.5224 4.24821 27.0834 3.1884 27.0834 2.08333C27.0834 1.5308 26.8639 1.0009 26.4732 0.610195C26.0825 0.219494 25.5526 0 25.0001 0C24.4476 0 23.9176 0.219494 23.5269 0.610195C23.1362 1.0009 22.9168 1.5308 22.9168 2.08333C22.9168 3.1884 22.4778 4.24821 21.6964 5.02961C20.915 5.81102 19.8552 6.25 18.7501 6.25C18.1975 6.25 17.6676 6.4695 17.2769 6.8602C16.8862 7.2509 16.6667 7.7808 16.6667 8.33334C16.6667 8.88587 16.8862 9.41578 17.2769 9.80648C17.6676 10.1972 18.1975 10.4167 18.7501 10.4167C19.8552 10.4167 20.915 10.8557 21.6964 11.6371C22.4778 12.4185 22.9168 13.4783 22.9168 14.5833C22.9168 15.1359 23.1362 15.6658 23.5269 16.0565C23.9176 16.4472 24.4476 16.6667 25.0001 16.6667C25.5526 16.6667 26.0825 16.4472 26.4732 16.0565C26.8639 15.6658 27.0834 15.1359 27.0834 14.5833C27.0834 13.4783 27.5224 12.4185 28.3038 11.6371C29.0852 10.8557 30.145 10.4167 31.2501 10.4167C31.8026 10.4167 32.3325 10.1972 32.7232 9.80648C33.1139 9.41578 33.3334 8.88587 33.3334 8.33334C33.3334 7.7808 33.1139 7.2509 32.7232 6.8602C32.3325 6.4695 31.8026 6.25 31.2501 6.25Z" fill="#23D0C1"/>
<path d="M14.5833 39.5833C13.4783 39.5833 12.4185 39.1444 11.6371 38.363C10.8557 37.5815 10.4167 36.5217 10.4167 35.4167C10.4167 34.8641 10.1972 34.3342 9.80648 33.9435C9.41578 33.5528 8.88587 33.3333 8.33334 33.3333C7.7808 33.3333 7.2509 33.5528 6.8602 33.9435C6.4695 34.3342 6.25 34.8641 6.25 35.4167C6.25 36.5217 5.81102 37.5815 5.02961 38.363C4.24821 39.1444 3.1884 39.5833 2.08333 39.5833C1.5308 39.5833 1.0009 39.8028 0.610195 40.1935C0.219494 40.5842 0 41.1141 0 41.6667C0 42.2192 0.219494 42.7491 0.610195 43.1398C1.0009 43.5305 1.5308 43.75 2.08333 43.75C3.1884 43.75 4.24821 44.189 5.02961 44.9704C5.81102 45.7518 6.25 46.8116 6.25 47.9167C6.25 48.4692 6.4695 48.9991 6.8602 49.3898C7.2509 49.7805 7.7808 50 8.33334 50C8.88587 50 9.41578 49.7805 9.80648 49.3898C10.1972 48.9991 10.4167 48.4692 10.4167 47.9167C10.4167 46.8116 10.8557 45.7518 11.6371 44.9704C12.4185 44.189 13.4783 43.75 14.5833 43.75C15.1359 43.75 15.6658 43.5305 16.0565 43.1398C16.4472 42.7491 16.6667 42.2192 16.6667 41.6667C16.6667 41.1141 16.4472 40.5842 16.0565 40.1935C15.6658 39.8028 15.1359 39.5833 14.5833 39.5833Z" fill="#23D0C1"/>
<path d="M47.9166 39.5833C46.8115 39.5833 45.7517 39.1444 44.9703 38.363C44.1889 37.5815 43.7499 36.5217 43.7499 35.4167C43.7499 34.8641 43.5304 34.3342 43.1397 33.9435C42.749 33.5528 42.2191 33.3333 41.6666 33.3333C41.1141 33.3333 40.5842 33.5528 40.1934 33.9435C39.8027 34.3342 39.5833 34.8641 39.5833 35.4167C39.5833 36.5217 39.1443 37.5815 38.3629 38.363C37.5815 39.1444 36.5217 39.5833 35.4166 39.5833C34.8641 39.5833 34.3341 39.8028 33.9434 40.1935C33.5527 40.5842 33.3333 41.1141 33.3333 41.6667C33.3333 42.2192 33.5527 42.7491 33.9434 43.1398C34.3341 43.5305 34.8641 43.75 35.4166 43.75C36.5217 43.75 37.5815 44.189 38.3629 44.9704C39.1443 45.7518 39.5833 46.8116 39.5833 47.9167C39.5833 48.4692 39.8027 48.9991 40.1934 49.3898C40.5842 49.7805 41.1141 50 41.6666 50C42.2191 50 42.749 49.7805 43.1397 49.3898C43.5304 48.9991 43.7499 48.4692 43.7499 47.9167C43.7499 46.8116 44.1889 45.7518 44.9703 44.9704C45.7517 44.189 46.8115 43.75 47.9166 43.75C48.4691 43.75 48.999 43.5305 49.3897 43.1398C49.7804 42.7491 49.9999 42.2192 49.9999 41.6667C49.9999 41.1141 49.7804 40.5842 49.3897 40.1935C48.999 39.8028 48.4691 39.5833 47.9166 39.5833Z" fill="#23D0C1"/>
</g>
<defs>
<clipPath id="clip0_13_66">
<rect width="50" height="50" fill="white"/>
</clipPath>
</defs>
</svg>
