<svg width="50" height="50" viewBox="0 0 50 50" fill="none" xmlns="http://www.w3.org/2000/svg">
<g clip-path="url(#clip0_12_46)">
<path d="M1.83333 20.6458L9.89583 12.5C10.0895 12.3047 10.3199 12.1497 10.5738 12.044C10.8277 11.9382 11.1 11.8837 11.375 11.8837C11.65 11.8837 11.9223 11.9382 12.1762 12.044C12.4301 12.1497 12.6605 12.3047 12.8542 12.5C13.0494 12.6937 13.2044 12.9241 13.3102 13.178C13.416 13.4318 13.4704 13.7041 13.4704 13.9792C13.4704 14.2542 13.416 14.5265 13.3102 14.7804C13.2044 15.0342 13.0494 15.2647 12.8542 15.4583L5.43749 22.9167H47.9167C48.4692 22.9167 48.9991 23.1362 49.3898 23.5269C49.7805 23.9176 50 24.4475 50 25C50 25.5525 49.7805 26.0824 49.3898 26.4731C48.9991 26.8638 48.4692 27.0833 47.9167 27.0833H5.31249L12.8542 34.625C13.2235 35.0124 13.4296 35.5272 13.4296 36.0625C13.4296 36.5978 13.2235 37.1125 12.8542 37.5C12.6605 37.6953 12.4301 37.8503 12.1762 37.956C11.9223 38.0618 11.65 38.1162 11.375 38.1162C11.1 38.1162 10.8277 38.0618 10.5738 37.956C10.3199 37.8503 10.0895 37.6953 9.89583 37.5L1.83333 29.4792C0.662906 28.3073 0.00549316 26.7188 0.00549316 25.0625C0.00549316 23.4062 0.662906 21.8177 1.83333 20.6458Z" fill="#0B1E1B"/>
</g>
<defs>
<clipPath id="clip0_12_46">
<rect width="50" height="50" fill="white" transform="matrix(1 0 0 -1 0 50)"/>
</clipPath>
</defs>
</svg>
