<svg height="512" viewBox="0 0 64 64" width="512" xmlns="http://www.w3.org/2000/svg"><g id="wind"><path d="m31 30h-13a3 3 0 0 1 0-6h13a2 2 0 1 0 -1.60254-3.19727 2.99986 2.99986 0 0 1 -4.7959-3.605 8 8 0 1 1 6.39844 12.80227zm-13-4a1 1 0 0 0 0 2h13a6 6 0 1 0 -4.7998-9.60059 1 1 0 1 0 1.59863 1.20166 4.00012 4.00012 0 1 1 3.20117 6.39893z" fill="#131e87"/><path d="m25 46h-15a3 3 0 0 1 0-6h15a3 3 0 0 1 0 6zm-15-4a1 1 0 0 0 0 2h15a1 1 0 0 0 0-2z" fill="#131e87"/><path d="m51 16a11.01245 11.01245 0 0 0 -11 11 3 3 0 0 0 6 0 5 5 0 1 1 5 5h-46a3 3 0 0 0 0 6h34a3 3 0 1 1 -2.83008 4 3.00009 3.00009 0 0 0 -5.65722 1.99951 9.00108 9.00108 0 0 0 17.4873-2.99951 8.90592 8.90592 0 0 0 -.52441-3h3.52441a11 11 0 0 0 0-22z" fill="#4dd0e1"/><path d="m10 30h-5a3 3 0 0 1 0-6h5a3 3 0 0 1 0 6zm-5-4a1 1 0 0 0 0 2h5a1 1 0 0 0 0-2z" fill="#131e87"/></g></svg>