<svg height="512" viewBox="0 0 64 64" width="512" xmlns="http://www.w3.org/2000/svg"><g id="homework"><path d="m54 21v25h-44v-25a5.00588 5.00588 0 0 0 -5 5v20a5.00588 5.00588 0 0 0 5 5h17.10059a5.00053 5.00053 0 0 0 9.79882 0h17.10059a5.00588 5.00588 0 0 0 5-5v-20a5.00588 5.00588 0 0 0 -5-5z" fill="#4dd0e1"/><path d="m44 23h-7a1 1 0 0 1 0-2h7a1 1 0 0 1 0 2z" fill="#131e87"/><path d="m44 27h-7a1 1 0 0 1 0-2h7a1 1 0 0 1 0 2z" fill="#131e87"/><path d="m44 31h-7a1 1 0 0 1 0-2h7a1 1 0 0 1 0 2z" fill="#131e87"/><path d="m44 35h-7a1 1 0 0 1 0-2h7a1 1 0 0 1 0 2z" fill="#131e87"/><path d="m46 39h-9a1 1 0 0 1 0-2h9a1 1 0 0 1 0 2z" fill="#131e87"/><path d="m47 43h-10a1 1 0 0 1 0-2h10a1 1 0 0 1 0 2z" fill="#131e87"/><path d="m54 17h-4a1 1 0 0 0 0 2h3v26h-20v-21a5.00588 5.00588 0 0 1 5-5h6a1 1 0 0 0 0-2h-6a7.0029 7.0029 0 0 0 -6 3.39746 7.0029 7.0029 0 0 0 -6-3.39746h-16a.99974.99974 0 0 0 -1 1v28a.99974.99974 0 0 0 1 1h44a.99974.99974 0 0 0 1-1v-28a.99974.99974 0 0 0 -1-1zm-43 2h15a5.00588 5.00588 0 0 1 5 5v21h-20z" fill="#131e87"/><path d="m50 13h-6a.99974.99974 0 0 0 -1 1v20a1.00111 1.00111 0 0 0 .06348.35107l3 8a1.00025 1.00025 0 0 0 1.873 0l3-8a1.00111 1.00111 0 0 0 .06352-.35107v-20a.99974.99974 0 0 0 -1-1z" fill="#4dd0e1"/><g fill="#131e87"><path d="m50 15h-6a.99974.99974 0 0 1 -1-1v-2a3.00328 3.00328 0 0 1 3-3h2a3.00328 3.00328 0 0 1 3 3v2a.99974.99974 0 0 1 -1 1zm-5-2h4v-1a1.001 1.001 0 0 0 -1-1h-2a1.001 1.001 0 0 0 -1 1z"/><path d="m27 23h-13a1 1 0 0 1 0-2h13a1 1 0 0 1 0 2z"/><path d="m27 31h-13a1 1 0 0 1 0-2h13a1 1 0 0 1 0 2z"/><path d="m27 39h-13a1 1 0 0 1 0-2h13a1 1 0 0 1 0 2z"/><path d="m27 43h-13a1 1 0 0 1 0-2h13a1 1 0 0 1 0 2z"/><path d="m23 27h-9a1 1 0 0 1 0-2h9a1 1 0 0 1 0 2z"/><path d="m23 35h-9a1 1 0 0 1 0-2h9a1 1 0 0 1 0 2z"/><circle cx="27" cy="26" r="1"/><circle cx="27" cy="34" r="1"/></g></g></svg>