<svg width="50" height="50" viewBox="0 0 50 50" fill="none" xmlns="http://www.w3.org/2000/svg">
<g clip-path="url(#clip0_12_57)">
<path d="M14.5833 1.52588e-05C14.3091 -0.00157166 14.0374 0.0509796 13.7835 0.154655C13.5297 0.258331 13.2988 0.411095 13.1042 0.604183C12.9089 0.797855 12.7539 1.02827 12.6481 1.28215C12.5424 1.53602 12.4879 1.80832 12.4879 2.08335C12.4879 2.35837 12.5424 2.63068 12.6481 2.88455C12.7539 3.13842 12.9089 3.36884 13.1042 3.56251L30.125 20.5833C31.2954 21.7552 31.9528 23.3438 31.9528 25C31.9528 26.6563 31.2954 28.2448 30.125 29.4167L13.1042 46.4375C12.7119 46.8298 12.4915 47.3619 12.4915 47.9167C12.4915 48.4715 12.7119 49.0035 13.1042 49.3958C13.4965 49.7881 14.0285 50.0085 14.5833 50.0085C15.1381 50.0085 15.6702 49.7881 16.0625 49.3958L33.0833 32.375C34.0534 31.4074 34.8231 30.2579 35.3482 28.9924C35.8733 27.7269 36.1436 26.3702 36.1436 25C36.1436 23.6299 35.8733 22.2732 35.3482 21.0076C34.8231 19.7421 34.0534 18.5926 33.0833 17.625L16.0625 0.604183C15.8678 0.411095 15.637 0.258331 15.3831 0.154655C15.1293 0.0509796 14.8575 -0.00157166 14.5833 1.52588e-05Z" fill="#23D0C1"/>
</g>
<defs>
<clipPath id="clip0_12_57">
<rect width="50" height="50" fill="white" transform="matrix(1 0 0 -1 0 50)"/>
</clipPath>
</defs>
</svg>
