<svg width="50" height="50" viewBox="0 0 50 50" fill="none" xmlns="http://www.w3.org/2000/svg">
<g clip-path="url(#clip0_12_52)">
<path d="M14.5833 50H8.33333C6.1232 50 4.00358 49.122 2.44078 47.5592C0.877974 45.9964 0 43.8768 0 41.6667L0 35.4167C0 33.2065 0.877974 31.0869 2.44078 29.5241C4.00358 27.9613 6.1232 27.0833 8.33333 27.0833H14.5833C16.7935 27.0833 18.9131 27.9613 20.4759 29.5241C22.0387 31.0869 22.9167 33.2065 22.9167 35.4167V41.6667C22.9167 43.8768 22.0387 45.9964 20.4759 47.5592C18.9131 49.122 16.7935 50 14.5833 50V50ZM18.75 35.4167C18.75 34.3116 18.311 33.2518 17.5296 32.4704C16.7482 31.689 15.6884 31.25 14.5833 31.25H8.33333C7.22827 31.25 6.16846 31.689 5.38706 32.4704C4.60565 33.2518 4.16667 34.3116 4.16667 35.4167V41.6667C4.16667 42.7717 4.60565 43.8315 5.38706 44.6129C6.16846 45.3943 7.22827 45.8333 8.33333 45.8333H14.5833C15.6884 45.8333 16.7482 45.3943 17.5296 44.6129C18.311 43.8315 18.75 42.7717 18.75 41.6667V35.4167Z" fill="white"/>
<path d="M41.6666 50H35.4166C33.2065 50 31.0868 49.122 29.524 47.5592C27.9612 45.9964 27.0833 43.8768 27.0833 41.6667V35.4167C27.0833 33.2065 27.9612 31.0869 29.524 29.5241C31.0868 27.9613 33.2065 27.0833 35.4166 27.0833H41.6666C43.8767 27.0833 45.9963 27.9613 47.5592 29.5241C49.122 31.0869 49.9999 33.2065 49.9999 35.4167V41.6667C49.9999 43.8768 49.122 45.9964 47.5592 47.5592C45.9963 49.122 43.8767 50 41.6666 50V50ZM45.8333 35.4167C45.8333 34.3116 45.3943 33.2518 44.6129 32.4704C43.8315 31.689 42.7717 31.25 41.6666 31.25H35.4166C34.3115 31.25 33.2517 31.689 32.4703 32.4704C31.6889 33.2518 31.2499 34.3116 31.2499 35.4167V41.6667C31.2499 42.7717 31.6889 43.8315 32.4703 44.6129C33.2517 45.3943 34.3115 45.8333 35.4166 45.8333H41.6666C42.7717 45.8333 43.8315 45.3943 44.6129 44.6129C45.3943 43.8315 45.8333 42.7717 45.8333 41.6667V35.4167Z" fill="white"/>
<path d="M14.5833 22.9167H8.33333C6.1232 22.9167 4.00358 22.0387 2.44078 20.4759C0.877974 18.9131 0 16.7935 0 14.5833L0 8.33333C0 6.12319 0.877974 4.00357 2.44078 2.44077C4.00358 0.877966 6.1232 -9.77516e-06 8.33333 -9.77516e-06H14.5833C16.7935 -9.77516e-06 18.9131 0.877966 20.4759 2.44077C22.0387 4.00357 22.9167 6.12319 22.9167 8.33333V14.5833C22.9167 16.7935 22.0387 18.9131 20.4759 20.4759C18.9131 22.0387 16.7935 22.9167 14.5833 22.9167V22.9167ZM18.75 8.33333C18.75 7.22826 18.311 6.16845 17.5296 5.38705C16.7482 4.60565 15.6884 4.16666 14.5833 4.16666H8.33333C7.22827 4.16666 6.16846 4.60565 5.38706 5.38705C4.60565 6.16845 4.16667 7.22826 4.16667 8.33333V14.5833C4.16667 15.6884 4.60565 16.7482 5.38706 17.5296C6.16846 18.311 7.22827 18.75 8.33333 18.75H14.5833C15.6884 18.75 16.7482 18.311 17.5296 17.5296C18.311 16.7482 18.75 15.6884 18.75 14.5833V8.33333Z" fill="white"/>
<path d="M41.6666 22.9167H35.4166C33.2065 22.9167 31.0868 22.0387 29.524 20.4759C27.9612 18.9131 27.0833 16.7935 27.0833 14.5833V8.33333C27.0833 6.12319 27.9612 4.00357 29.524 2.44077C31.0868 0.877966 33.2065 -9.77516e-06 35.4166 -9.77516e-06H41.6666C43.8767 -9.77516e-06 45.9963 0.877966 47.5592 2.44077C49.122 4.00357 49.9999 6.12319 49.9999 8.33333V14.5833C49.9999 16.7935 49.122 18.9131 47.5592 20.4759C45.9963 22.0387 43.8767 22.9167 41.6666 22.9167V22.9167ZM45.8333 8.33333C45.8333 7.22826 45.3943 6.16845 44.6129 5.38705C43.8315 4.60565 42.7717 4.16666 41.6666 4.16666H35.4166C34.3115 4.16666 33.2517 4.60565 32.4703 5.38705C31.6889 6.16845 31.2499 7.22826 31.2499 8.33333V14.5833C31.2499 15.6884 31.6889 16.7482 32.4703 17.5296C33.2517 18.311 34.3115 18.75 35.4166 18.75H41.6666C42.7717 18.75 43.8315 18.311 44.6129 17.5296C45.3943 16.7482 45.8333 15.6884 45.8333 14.5833V8.33333Z" fill="white"/>
</g>
<defs>
<clipPath id="clip0_12_52">
<rect width="50" height="50" fill="white" transform="matrix(1 0 0 -1 0 50)"/>
</clipPath>
</defs>
</svg>
