<svg height="512" viewBox="0 0 64 64" width="512" xmlns="http://www.w3.org/2000/svg"><g id="dumpster"><path d="m7 44h-4a.99974.99974 0 0 1 -1-1v-6a.99974.99974 0 0 1 1-1h4a.99974.99974 0 0 1 1 1v6a.99974.99974 0 0 1 -1 1zm-3-2h2v-4h-2z" fill="#131e87"/><path d="m61 44h-4a.99974.99974 0 0 1 -1-1v-6a.99974.99974 0 0 1 1-1h4a.99974.99974 0 0 1 1 1v6a.99974.99974 0 0 1 -1 1zm-3-2h2v-4h-2z" fill="#131e87"/><path d="m55 24h-1v-1a3.00328 3.00328 0 0 0 -3-3h-2.10059a5.00854 5.00854 0 0 0 -4.89941-4 4.93732 4.93732 0 0 0 -2.84473.89258 8.01632 8.01632 0 0 0 -5.15527-1.89258 7.93253 7.93253 0 0 0 -4.87793 1.65869 5.96277 5.96277 0 0 0 -7.77148-.415 3.978 3.978 0 0 0 -4.09571.85987 7.97477 7.97477 0 0 0 -9.19239 6.89644h-1.06249a3.00328 3.00328 0 0 0 -3 3v2a.99974.99974 0 0 0 1 1h50a.99974.99974 0 0 0 1-1v-2a3.00328 3.00328 0 0 0 -3-3z" fill="#4dd0e1"/><rect fill="#4dd0e1" height="20" rx="1" width="52" x="6" y="32"/><rect fill="#4dd0e1" height="6" rx="1" width="8" x="8" y="56"/><rect fill="#4dd0e1" height="6" rx="1" width="8" x="48" y="56"/><g fill="#131e87"><path d="m57 58h-50a.99974.99974 0 0 1 -1-1v-6a.99974.99974 0 0 1 1-1h50a.99974.99974 0 0 1 1 1v6a.99974.99974 0 0 1 -1 1zm-49-2h48v-4h-48z"/><path d="m59 34h-54a3 3 0 0 1 0-6h54a3 3 0 0 1 0 6zm-54-4a1 1 0 0 0 0 2h54a1 1 0 0 0 0-2z"/><path d="m32.99023 13a.99973.99973 0 0 1 -1-1 2.11977 2.11977 0 0 0 -.74121-1.58936 4.03775 4.03775 0 0 1 0-5.82128 2.11977 2.11977 0 0 0 .74121-1.58936 1 1 0 1 1 2 0 4.06245 4.06245 0 0 1 -1.23923 2.91064 2.07462 2.07462 0 0 0 0 3.17872 4.06245 4.06245 0 0 1 1.23923 2.91064.99973.99973 0 0 1 -1 1z"/><path d="m27.99023 13a.99973.99973 0 0 1 -1-1 2.11977 2.11977 0 0 0 -.74121-1.58936 4.03775 4.03775 0 0 1 0-5.82128 2.11977 2.11977 0 0 0 .74121-1.58936 1 1 0 0 1 2 0 4.06245 4.06245 0 0 1 -1.23923 2.91064 2.07462 2.07462 0 0 0 0 3.17872 4.06245 4.06245 0 0 1 1.23923 2.91064.99973.99973 0 0 1 -1 1z"/><path d="m37.99023 13a.99973.99973 0 0 1 -1-1 2.11977 2.11977 0 0 0 -.74121-1.58936 4.03775 4.03775 0 0 1 0-5.82128 2.11977 2.11977 0 0 0 .74121-1.58936 1 1 0 0 1 2 0 4.06245 4.06245 0 0 1 -1.23923 2.91064 2.07462 2.07462 0 0 0 0 3.17872 4.06245 4.06245 0 0 1 1.23923 2.91064.99973.99973 0 0 1 -1 1z"/><path d="m9 42a.99974.99974 0 0 1 -1-1v-4a.99974.99974 0 0 1 1-1h4a1 1 0 0 1 0 2h-3v3a.99974.99974 0 0 1 -1 1z"/></g></g></svg>