<svg width="50" height="50" viewBox="0 0 50 50" fill="none" xmlns="http://www.w3.org/2000/svg">
<g clip-path="url(#clip0_13_59)">
<path d="M47.9167 45.8333H10.4167C8.75906 45.8333 7.16935 45.1749 5.99725 44.0027C4.82515 42.8306 4.16667 41.2409 4.16667 39.5833V2.08333C4.16667 1.5308 3.94717 1.00089 3.55647 0.610194C3.16577 0.219493 2.63587 0 2.08333 0C1.5308 0 1.00089 0.219493 0.610194 0.610194C0.219493 1.00089 0 1.5308 0 2.08333L0 39.5833C0.00330804 42.345 1.10184 44.9926 3.05462 46.9454C5.00741 48.8982 7.65501 49.9967 10.4167 50H47.9167C48.4692 50 48.9991 49.7805 49.3898 49.3898C49.7805 48.9991 50 48.4692 50 47.9167C50 47.3641 49.7805 46.8342 49.3898 46.4435C48.9991 46.0528 48.4692 45.8333 47.9167 45.8333Z" fill="#23D0C1"/>
<path d="M12.5 41.6667C13.0525 41.6667 13.5824 41.4472 13.9731 41.0565C14.3638 40.6658 14.5833 40.1359 14.5833 39.5833V25C14.5833 24.4475 14.3638 23.9176 13.9731 23.5269C13.5824 23.1362 13.0525 22.9167 12.5 22.9167C11.9474 22.9167 11.4175 23.1362 11.0268 23.5269C10.6361 23.9176 10.4166 24.4475 10.4166 25V39.5833C10.4166 40.1359 10.6361 40.6658 11.0268 41.0565C11.4175 41.4472 11.9474 41.6667 12.5 41.6667Z" fill="#23D0C1"/>
<path d="M20.8334 20.8333V39.5833C20.8334 40.1359 21.0529 40.6658 21.4436 41.0565C21.8343 41.4472 22.3642 41.6667 22.9167 41.6667C23.4692 41.6667 23.9991 41.4472 24.3898 41.0565C24.7805 40.6658 25 40.1359 25 39.5833V20.8333C25 20.2808 24.7805 19.7509 24.3898 19.3602C23.9991 18.9695 23.4692 18.75 22.9167 18.75C22.3642 18.75 21.8343 18.9695 21.4436 19.3602C21.0529 19.7509 20.8334 20.2808 20.8334 20.8333Z" fill="#23D0C1"/>
<path d="M31.25 27.0833V39.5833C31.25 40.1359 31.4695 40.6658 31.8602 41.0565C32.2509 41.4472 32.7808 41.6667 33.3333 41.6667C33.8859 41.6667 34.4158 41.4472 34.8065 41.0565C35.1972 40.6658 35.4167 40.1359 35.4167 39.5833V27.0833C35.4167 26.5308 35.1972 26.0009 34.8065 25.6102C34.4158 25.2195 33.8859 25 33.3333 25C32.7808 25 32.2509 25.2195 31.8602 25.6102C31.4695 26.0009 31.25 26.5308 31.25 27.0833Z" fill="#23D0C1"/>
<path d="M41.6666 18.75V39.5833C41.6666 40.1359 41.8861 40.6658 42.2768 41.0565C42.6675 41.4472 43.1974 41.6667 43.75 41.6667C44.3025 41.6667 44.8324 41.4472 45.2231 41.0565C45.6138 40.6658 45.8333 40.1359 45.8333 39.5833V18.75C45.8333 18.1975 45.6138 17.6676 45.2231 17.2769C44.8324 16.8862 44.3025 16.6667 43.75 16.6667C43.1974 16.6667 42.6675 16.8862 42.2768 17.2769C41.8861 17.6676 41.6666 18.1975 41.6666 18.75Z" fill="#23D0C1"/>
<path d="M12.5 18.75C13.0525 18.7499 13.5823 18.5303 13.9729 18.1396L21.4438 10.6687C21.8408 10.2905 22.3682 10.0795 22.9167 10.0795C23.4651 10.0795 23.9925 10.2905 24.3896 10.6687L28.9146 15.1937C30.0866 16.3654 31.6761 17.0237 33.3333 17.0237C34.9906 17.0237 36.58 16.3654 37.7521 15.1937L49.3896 3.55625C49.7691 3.16332 49.9791 2.63707 49.9743 2.09083C49.9696 1.54458 49.7505 1.02206 49.3642 0.635791C48.9779 0.249524 48.4554 0.0304221 47.9092 0.0256754C47.3629 0.0209287 46.8367 0.230917 46.4438 0.610413L34.8063 12.2458C34.4156 12.6364 33.8858 12.8558 33.3333 12.8558C32.7809 12.8558 32.2511 12.6364 31.8604 12.2458L27.3354 7.72291C26.1634 6.55122 24.5739 5.893 22.9167 5.893C21.2594 5.893 19.67 6.55122 18.4979 7.72291L11.0271 15.1937C10.7358 15.4851 10.5375 15.8563 10.4571 16.2603C10.3768 16.6644 10.418 17.0832 10.5757 17.4639C10.7333 17.8445 11.0003 18.1698 11.3428 18.3987C11.6853 18.6277 12.088 18.7499 12.5 18.75V18.75Z" fill="#23D0C1"/>
</g>
<defs>
<clipPath id="clip0_13_59">
<rect width="50" height="50" fill="white"/>
</clipPath>
</defs>
</svg>
