<svg height="512" viewBox="0 0 64 64" width="512" xmlns="http://www.w3.org/2000/svg"><g id="bus_stop-2" data-name="bus stop"><path d="m32 54h-6a1 1 0 0 0 -1 1v4a3.00328 3.00328 0 0 0 3 3h2a3.00328 3.00328 0 0 0 3-3v-4a1 1 0 0 0 -1-1z" fill="#4dd0e1"/><path d="m51 54h-6a1 1 0 0 0 -1 1v4a3.00328 3.00328 0 0 0 3 3h2a3.00328 3.00328 0 0 0 3-3v-4a1 1 0 0 0 -1-1z" fill="#4dd0e1"/><path d="m30 46h-6a1 1 0 0 0 -1 1v4a1 1 0 0 0 1 1h6a3 3 0 0 0 0-6z" fill="#4dd0e1"/><path d="m53 46h-6a3 3 0 0 0 0 6h6a1 1 0 0 0 1-1v-4a1 1 0 0 0 -1-1z" fill="#4dd0e1"/><rect fill="#4dd0e1" height="16" rx="1" width="12" x="4" y="42"/><path d="m17 42h-4v-30h3a1 1 0 0 0 1-1v-4a1 1 0 0 0 -1-1h-3v-1a3 3 0 0 0 -6 0v37h-4a1 1 0 0 0 0 2h14a1 1 0 0 0 0-2zm-2-34v2h-2v-2zm-6 34v-37a1 1 0 0 1 2 0v37z" fill="#131e87"/><rect fill="#4dd0e1" height="14" rx="3" width="18" x="15" y="2"/><rect fill="#4dd0e1" height="18" rx="1" width="23" x="27" y="26"/><g fill="#131e87"><path d="m57 24h-3v-3a3.00328 3.00328 0 0 0 -3-3h-25a3.00328 3.00328 0 0 0 -3 3v3h-3a3.00328 3.00328 0 0 0 -3 3v2a1 1 0 0 0 2 0v-2a1.0013 1.0013 0 0 1 1-1h3v27a3.00328 3.00328 0 0 0 3 3h25a3.00328 3.00328 0 0 0 3-3v-27h3a1.0013 1.0013 0 0 1 1 1v2a1 1 0 0 0 2 0v-2a3.00328 3.00328 0 0 0 -3-3zm-5 29a1.0013 1.0013 0 0 1 -1 1h-25a1.0013 1.0013 0 0 1 -1-1v-32a1.0013 1.0013 0 0 1 1-1h25a1.0013 1.0013 0 0 1 1 1z"/><path d="m49 22h-21a1 1 0 0 0 0 2h21a1 1 0 0 0 0-2z"/><path d="m41 48h-5a1 1 0 0 1 0-2h5a1 1 0 0 1 0 2z"/><path d="m41 52h-5a1 1 0 0 1 0-2h5a1 1 0 0 1 0 2z"/><path d="m15 62h-10a3 3 0 0 1 0-6h10a3 3 0 0 1 0 6zm-10-4a1 1 0 0 0 0 2h10a1 1 0 0 0 0-2z"/><path d="m28 8h-8a1 1 0 0 1 0-2h8a1 1 0 0 1 0 2z"/><path d="m24 12h-4a1 1 0 0 1 0-2h4a1 1 0 0 1 0 2z"/></g><path d="m18 28a3.00328 3.00328 0 0 0 -3 3v4a3 3 0 0 0 6 0v-4a3.00328 3.00328 0 0 0 -3-3z" fill="#4dd0e1"/><path d="m59 28a3.00328 3.00328 0 0 0 -3 3v4a3 3 0 0 0 6 0v-4a3.00328 3.00328 0 0 0 -3-3z" fill="#4dd0e1"/></g></svg>