<?xml version="1.0" encoding="iso-8859-1"?>
<!-- Generator: Adobe Illustrator 19.0.0, SVG Export Plug-In . SVG Version: 6.00 Build 0)  -->
<svg version="1.1" id="Capa_1" xmlns="http://www.w3.org/2000/svg" xmlns:xlink="http://www.w3.org/1999/xlink" x="0px" y="0px"
	 viewBox="0 0 419.312 419.312" style="enable-background:new 0 0 419.312 419.312;" xml:space="preserve">
<rect id="SVGCleanerId_0" x="39.508" y="156.985" style="fill:#707070;" width="16.374" height="213.57"/>
<g>
	<rect id="SVGCleanerId_0_1_" x="39.508" y="156.985" style="fill:#707070;" width="16.374" height="213.57"/>
</g>
<g>
	<path style="fill:#3F3F3F;" d="M151.514,330.546v30.132c0,5.455,4.514,9.876,10.082,9.876h30.571
		c5.568,0,10.082-4.421,10.082-9.876v-30.132H151.514z"/>
	<path style="fill:#3F3F3F;" d="M376.179,330.546v30.132c0,5.455-4.514,9.876-10.082,9.876h-30.571
		c-5.568,0-10.082-4.421-10.082-9.876v-30.132H376.179z"/>
</g>
<path style="fill:#F6737C;" d="M381.146,72.651c-19.004-7.385-67.098-23.895-117.299-23.895c-50.202,0-98.297,16.51-117.3,23.895
	c-5.164,2.007-8.535,6.901-8.535,12.342v234.677c0,7.339,6.073,13.288,13.565,13.288h112.27h112.268
	c7.492,0,13.566-5.949,13.566-13.288V84.993C389.681,79.552,386.309,74.658,381.146,72.651z"/>
<polygon style="fill:#3F3F3F;" points="39.508,272.424 55.882,288.798 55.882,156.981 39.508,156.981 "/>
<path style="fill:#D72C38;" d="M376.115,332.959c7.492,0,13.566-5.949,13.566-13.288v-0.71l-60.479-60.478
	c-2.559-2.561-6.073-3.912-9.688-3.711c-14.076,0.782-42.384,0.417-58.777-8.41l38.886-17.459L162.658,91.938
	c-3.698-3.698-10.118-2.784-12.282,1.977c-0.017,0.037-0.033,0.073-0.049,0.11c-2.522,5.674-12.314,82.888-12.314,82.888v142.758
	c0,7.339,6.073,13.288,13.565,13.288h112.27H376.115z"/>
<path style="fill:#F6737C;" d="M118.917,197.337l19.095,4.196v-66.982h-29.631v49.893
	C108.381,190.627,112.758,195.984,118.917,197.337z"/>
<ellipse style="fill:#FFFFFF;" cx="181.028" cy="272.235" rx="15.67" ry="15.351"/>
<path style="fill:#F6737C;" d="M408.777,197.337l-19.096,4.196v-66.982h29.631v49.893
	C419.312,190.627,414.935,195.984,408.777,197.337z"/>
<path style="fill:#D72C38;" d="M251.926,70.431c-12.561,1.219-32.369,3.617-45.957,7.576c-2.994,0.872-5.039,3.618-5.039,6.736l0,0
	c0,3.873,3.14,7.013,7.013,7.013h55.905h55.904c3.873,0,7.012-3.14,7.012-7.013l0,0c0-3.118-2.045-5.864-5.039-6.736
	c-13.588-3.959-33.395-6.357-45.956-7.576C267.831,69.662,259.863,69.662,251.926,70.431z"/>
<path style="fill:#CFEAFF;" d="M263.847,117.341h-97.062v103.977c0,5.262,3.409,9.928,8.495,11.619
	c15.515,5.162,50.377,15.113,88.566,15.113c38.188,0,73.05-9.951,88.565-15.113c5.086-1.691,8.495-6.357,8.495-11.619V117.341
	H263.847z"/>
<ellipse style="fill:#FFFFFF;" cx="346.658" cy="272.235" rx="15.67" ry="15.351"/>
<path style="fill:#9E1B2B;" d="M307.377,290.806c-0.902-4.311-4.775-7.405-9.268-7.405h-34.262h-34.263
	c-4.493,0-8.365,3.095-9.269,7.405l0,0c-1.158,5.536,3.065,10.735,8.721,10.735h34.811h34.809
	C304.312,301.542,308.536,296.343,307.377,290.806L307.377,290.806z"/>
<circle style="fill:#F6737C;" cx="47.968" cy="117.345" r="47.968"/>
<path style="fill:#D72C38;" d="M12.066,85.549c-7.5,8.464-12.063,19.593-12.063,31.792c0,26.492,21.476,47.967,47.968,47.967
	c12.199,0,23.328-4.562,31.792-12.062L12.066,85.549z"/>
<circle style="fill:#FFFFFF;" cx="47.968" cy="117.345" r="30.568"/>
<path style="fill:#90CAF4;" d="M64.254,256.887H31.688c-5.104,0-9.241-4.138-9.241-9.242v-62.049h51.048v62.049
	C73.495,252.75,69.358,256.887,64.254,256.887z"/>
<path style="fill:#EDEDED;" d="M47.971,147.908c7.394,0,14.173-2.626,19.459-6.995l-25.098-25.098
	c-5.929-5.929-15.903-4.004-19.336,3.646c-1.449,3.229-2.447,6.706-2.916,10.348C24.855,140.469,35.535,147.908,47.971,147.908z"/>
<path style="fill:#6FB0D8;" d="M22.447,240.996v6.649c0,5.104,4.137,9.242,9.241,9.242h32.565c4.034,0,7.428-2.602,8.689-6.205
	l-32.43-32.43c-4.389-4.389-11.888-2.299-13.375,3.727L22.447,240.996z"/>
<g>
	<path style="fill:#FFFFFF;" d="M188.018,117.341h-21.232v45.812l84.534,84.534c4.123,0.224,8.3,0.363,12.527,0.363
		c17.901,0,35.04-2.195,49.829-5.051L188.018,117.341z"/>
	<path style="fill:#FFFFFF;" d="M295.705,117.341h-31.857h-10.666l107.244,107.244c0.296-1.05,0.482-2.141,0.482-3.268v-38.773
		L295.705,117.341z"/>
</g>
<polygon style="fill:#D72C38;" points="399.094,134.551 389.681,134.551 389.681,201.533 399.094,199.465 "/>
<g>
</g>
<g>
</g>
<g>
</g>
<g>
</g>
<g>
</g>
<g>
</g>
<g>
</g>
<g>
</g>
<g>
</g>
<g>
</g>
<g>
</g>
<g>
</g>
<g>
</g>
<g>
</g>
<g>
</g>
</svg>
