<?xml version="1.0" encoding="iso-8859-1"?>
<!-- Generator: Adobe Illustrator 19.0.0, SVG Export Plug-In . SVG Version: 6.00 Build 0)  -->
<svg version="1.1" id="Layer_1" xmlns="http://www.w3.org/2000/svg" xmlns:xlink="http://www.w3.org/1999/xlink" x="0px" y="0px"
	 viewBox="0 0 512 512" style="enable-background:new 0 0 512 512;" xml:space="preserve">
<path style="fill:#E3B236;" d="M256.833,136.539c-84.11,0.555-152.533,67.434-152.533,149.076v119.603
	c0,22.345,18.734,40.522,41.755,40.522h221.789c23.022,0,41.755-18.177,41.755-40.522V285.615
	C409.6,203.973,341.167,137.094,256.833,136.539z"/>
<path style="fill:#DA9A2B;" d="M256.833,136.539c-0.281,0.002-0.553,0.043-0.833,0.047v309.156h111.845
	c23.022,0,41.755-18.177,41.755-40.522V285.616C409.6,203.973,341.167,137.094,256.833,136.539z"/>
<path style="fill:#765B43;" d="M426.667,102.4h-102.4c-9.422,0-17.067-7.639-17.067-17.067s7.645-17.067,17.067-17.067h102.4
	c9.422,0,17.067,7.639,17.067,17.067S436.089,102.4,426.667,102.4z"/>
<path style="fill:#8C6D50;" d="M187.733,102.4h-102.4c-9.422,0-17.067-7.639-17.067-17.067s7.645-17.067,17.067-17.067h102.4
	c9.422,0,17.067,7.639,17.067,17.067S197.155,102.4,187.733,102.4z"/>
<path style="fill:#DA9A2B;" d="M256,170.667c-47.055,0-85.333-38.278-85.333-85.333S208.945,0,256,0s85.333,38.278,85.333,85.333
	S303.055,170.667,256,170.667z"/>
<path style="fill:#CF8B27;" d="M341.333,85.333C341.333,38.278,303.055,0,256,0v170.667
	C303.055,170.667,341.333,132.388,341.333,85.333z"/>
<path style="fill:#6E6057;" d="M256,512c-28.233,0-51.2-22.291-51.2-49.694v-66.259c0-27.403,22.967-49.694,51.2-49.694
	s51.2,22.291,51.2,49.694v66.258C307.2,489.709,284.233,512,256,512z"/>
<path style="fill:#615349;" d="M307.2,462.306v-66.259c0-27.403-22.967-49.694-51.2-49.694V512
	C284.233,512,307.2,489.709,307.2,462.306z"/>
<path style="fill:#E2E7EC;" d="M256,136.533c-28.233,0-51.2-22.967-51.2-51.2s22.967-51.2,51.2-51.2s51.2,22.967,51.2,51.2
	S284.233,136.533,256,136.533z"/>
<path style="fill:#CCD5E0;" d="M307.2,85.333c0-28.233-22.967-51.2-51.2-51.2v102.4C284.233,136.533,307.2,113.566,307.2,85.333z"/>
<g>
</g>
<g>
</g>
<g>
</g>
<g>
</g>
<g>
</g>
<g>
</g>
<g>
</g>
<g>
</g>
<g>
</g>
<g>
</g>
<g>
</g>
<g>
</g>
<g>
</g>
<g>
</g>
<g>
</g>
</svg>
