<svg id="Capa_1" enable-background="new 0 0 510.461 510.461" height="512" viewBox="0 0 510.461 510.461" width="512" xmlns="http://www.w3.org/2000/svg"><path d="m40.444 305.531c-3.88-6.469-1.782-14.858 4.686-18.739l44.682-26.804 15.457-36.8c2.561-7.096 10.393-10.774 17.484-8.211 7.095 2.561 10.771 10.388 8.211 17.484l-17.109 41.373c-1.068 2.959-3.124 5.458-5.821 7.076l-48.852 29.306c-6.469 3.882-14.857 1.783-18.738-4.685z" fill="#ffb69e"/><path d="m59.087 341.575h-23.747c-7.348 0-13.327-5.978-13.327-13.326v-19.61c0-7.348 5.979-13.326 13.327-13.326h23.747c7.348 0 13.327 5.978 13.327 13.326v19.61c0 7.348-5.979 13.326-13.327 13.326zm-23.747-34.262c-.731 0-1.327.595-1.327 1.326v19.61c0 .731.595 1.326 1.327 1.326h23.747c.731 0 1.327-.595 1.327-1.326v-19.61c0-.731-.595-1.326-1.327-1.326z" fill="#69280f"/><path d="m83.434 391.27h-73.263c-5.302 0-9.6-4.298-9.6-9.6v-51.032c0-5.302 4.298-9.6 9.6-9.6h73.263c5.302 0 9.6 4.298 9.6 9.6v51.032c0 5.302-4.298 9.6-9.6 9.6z" fill="#965028"/><path d="m76.452 450.388-4.755-69.812c-.185-2.716.282-5.437 1.362-7.935l27.359-63.283c3.742-8.655 13.791-12.636 22.446-8.896 8.655 3.742 12.638 13.791 8.896 22.446l-25.716 59.481 4.474 65.679c.641 9.407-6.466 17.553-15.873 18.193-9.403.64-17.552-6.46-18.193-15.873z" fill="#5f6e9b"/><path d="m167.397 330.339-78.314 5.236-7.101-106.204c-.764-11.432 7.884-21.319 19.316-22.084l36.914-2.468c11.432-.764 21.319 7.884 22.084 19.316z" fill="#64afff"/><ellipse cx="100.498" cy="166.723" fill="#ffb69e" rx="30.711" ry="30.711" transform="matrix(.998 -.067 .067 .998 -10.899 7.076)"/><path d="m63.211 336.232c-5.379-5.288-5.453-13.936-.166-19.315l36.527-37.158 1.543-16.595 15.331-10.539 11.726 14.593-1.852 19.911c-.292 3.132-1.655 6.067-3.859 8.31l-39.936 40.626c-5.288 5.381-13.935 5.454-19.314.167z" fill="#ffb69e"/><path d="m128.173 267.218 3.546-38.132c.698-7.511-4.824-14.166-12.335-14.864-7.507-.703-14.166 4.824-14.864 12.335l-3.404 36.607z" fill="#4699f2"/><path d="m116.532 504.951h-115.219v-39.549h105.687c5.265 0 9.532 4.268 9.532 9.532z" fill="#a5c8cd"/><path d="m222.185 510.461 21.937-45.056h-57.096l-21.937 45.056z" fill="#373c41"/><path d="m476.945 510.461-21.937-45.056h-57.096l21.937 45.056z" fill="#373c41"/><path d="m509.889 368.576c0 38.003-30.808 68.811-68.811 68.811h-240.123c-38.003 0-68.811-30.808-68.811-68.811v-235.475c0-38.003 30.808-68.811 68.811-68.811h240.124c38.003 0 68.811 30.808 68.811 68.811v235.475z" fill="#e64937"/><path d="m444.236 275.129h-246.438c-11.983 0-21.697-9.714-21.697-21.697v-106.991c0-11.983 9.714-21.697 21.697-21.697h246.438c11.983 0 21.697 9.714 21.697 21.697v106.991c-.001 11.983-9.714 21.697-21.697 21.697z" fill="#6ee1ff"/><circle cx="208.15" cy="365.871" fill="#ffebb4" r="32.049"/><circle cx="433.883" cy="365.245" fill="#ffebb4" r="32.049"/><path d="m377.63 36.077h-113.226c-9.962 0-18.038-8.076-18.038-18.039s8.076-18.038 18.038-18.038h113.226c9.962 0 18.039 8.076 18.039 18.039s-8.077 18.038-18.039 18.038z" fill="#55696e"/><path d="m373.827 437.387h-105.62c-5.707 0-10.333-4.626-10.333-10.333v-23.681c0-5.707 4.626-10.333 10.333-10.333h105.62c5.707 0 10.333 4.626 10.333 10.333v23.681c0 5.707-4.626 10.333-10.333 10.333z" fill="#c8462d"/><g fill="#fff"><path d="m187.514 272.538c3.061 1.651 6.562 2.591 10.284 2.591h64.328l108.875-150.384h-76.488z"/><path d="m281.401 275.129h39.238l108.875-150.385h-39.238z"/></g></svg>