<svg id="Capa_1" enable-background="new 0 0 512.006 512.006" height="512" viewBox="0 0 512.006 512.006" width="512" xmlns="http://www.w3.org/2000/svg"><g><path d="m256.003 0c-140.61 0-256 115.39-256 256 0 89.971 46.996 171.562 124.047 218.262h2.946l39.007-68.262h90 90l39.007 68.262h2.946c77.051-46.7 124.047-128.291 124.047-218.262 0-140.61-115.39-256-256-256z" fill="#ecf2ff"/><path d="m385.01 474.262h2.946c77.051-46.7 124.047-128.291 124.047-218.262 0-140.61-115.39-256-256-256v406h90z" fill="#d9e5ff"/><path d="m256.003 30c-124.072 0-226 101.928-226 226 0 79.395 41.591 151.392 109.604 192.598h2.054l24.342-42.598h90 90l24.342 42.598h2.054c68.013-41.206 109.604-113.203 109.604-192.598 0-124.072-101.928-226-226-226z" fill="#465a61"/><path d="m370.345 448.598h2.054c68.013-41.206 109.604-113.203 109.604-192.598 0-124.072-101.928-226-226-226v376h90z" fill="#3b4a51"/><g><g><path d="m112.434 510.931c-7.69-3.076-11.44-11.807-8.364-19.497l37.017-93.52c3.076-7.705 11.851-11.47 19.497-8.364 7.69 3.076 11.44 11.807 8.364 19.497l-37.017 93.52c-3.11 7.792-11.954 11.405-19.497 8.364z" fill="#ecf2ff"/></g></g><g><g><path d="m380.075 502.566-37.017-93.52c-3.076-7.69.674-16.421 8.364-19.497 7.603-3.091 16.406.659 19.497 8.364l37.017 93.52c3.076 7.69-.674 16.421-8.364 19.497-7.565 3.051-16.395-.59-19.497-8.364z" fill="#d9e5ff"/></g></g><path d="m409.057 285.725-28.757-3.576c-36.093 11.831-81.335 18.851-124.297 18.851-40.003 0-81.984-6.086-116.713-16.476l-36.341 1.201-5.281 52.804c-4.407 44.292 30.44 82.471 74.634 82.471h83.701 83.701c44.418 0 79.019-38.403 74.634-82.471z" fill="#ff7e42"/><path d="m414.338 338.529-5.281-52.804-28.757-3.576c-36.093 11.831-81.335 18.851-124.297 18.851v120h83.701c44.418 0 79.019-38.403 74.634-82.471z" fill="#ff3535"/><path d="m321.701 91h-65.698-65.698c-36.077 0-66.097 25.375-73.162 60l31.65 15h107.21 93.159l45.701-15c-7.064-34.625-37.084-60-73.162-60z" fill="#ff7e42"/><path d="m394.863 151c-7.064-34.625-37.084-60-73.162-60h-65.698v75h93.159z" fill="#ff3535"/><g><circle cx="346.003" cy="346" fill="#d9e5ff" r="15"/></g><g><circle cx="166.003" cy="346" fill="#ecf2ff" r="15"/></g><path d="m396.335 158.529c-.26-2.596-.961-5.024-1.472-7.529h-138.86-138.86c-.511 2.505-1.212 4.933-1.472 7.529l-9.52 95.186 36.976 30.798c27.935 9.049 66.248 16.487 112.876 16.487 54.653 0 97.881-10.219 126.372-21.376l23.458-26.125z" fill="#99cdff"/><path d="m405.833 253.499-9.498-94.969c-.26-2.596-.961-5.024-1.472-7.529h-138.86v150c54.653 0 97.881-10.219 126.372-21.376z" fill="#80acff"/><path d="m405.833 253.499c-24.401 14.335-76.959 32.501-149.83 32.501-72.911 0-125.491-18.184-149.852-32.285l-3.203 32.01c38.479 18.606 97.662 30.275 153.055 30.275s114.576-11.669 153.054-30.275z" fill="#ecf2ff"/><path d="m405.833 253.499c-24.401 14.335-76.959 32.501-149.83 32.501v30c55.393 0 114.576-11.669 153.054-30.275z" fill="#d9e5ff"/></g></svg>