<svg id="Capa_1" enable-background="new 0 0 512 512" height="512" viewBox="0 0 512 512" width="512" xmlns="http://www.w3.org/2000/svg"><path d="m105 436c-57.897 0-105-47.103-105-105s47.103-105 105-105 105 47.103 105 105-47.103 105-105 105zm0-180c-41.355 0-75 33.645-75 75s33.645 75 75 75 75-33.645 75-75-33.645-75-75-75z" fill="#62729a"/><path d="m180 121h30v60h-30z" fill="#62729a"/><path d="m407 436c-57.897 0-105-47.103-105-105s47.103-105 105-105 105 47.103 105 105-47.103 105-105 105zm0-180c-41.355 0-75 33.645-75 75s33.645 75 75 75 75-33.645 75-75-33.645-75-75-75z" fill="#48568b"/><path d="m150 106h90v30h-90z" fill="#62729a"/><path d="m362 177.95v-71.95l-16-8-14 8v60h-152l-77.48 126.68 24.96 16.64 64.29-96.44 41.31 103.12h-98.08v30h121l88.21-133.14 40.35 95.26 27.62-11.71zm-106 114.77c-3.54-8.71-35.21-88.12-38.71-96.72h102.1z" fill="#ff8856"/><path d="m412.18 296.41-27.62 11.71-40.35-95.26-88.21 133.14v-53.28l63.39-96.72h-63.39v-30h76v-60l14-8 16 8v71.95z" fill="#ff5b5b"/><path d="m105 376c-24.813 0-45-20.187-45-45s20.187-45 45-45 45 20.187 45 45-20.187 45-45 45z" fill="#d8d8fb"/><circle cx="105" cy="331" fill="#48568b" r="15"/><path d="m407 376c-24.813 0-45-20.187-45-45s20.187-45 45-45 45 20.187 45 45-20.187 45-45 45z" fill="#a3a3cf"/><g fill="#48568b"><circle cx="407" cy="331" r="15"/><path d="m407 76h-75v30h30 45c8.27 0 15 6.73 15 15s-6.73 15-15 15h-13.8v30h13.8c24.81 0 45-20.19 45-45s-20.19-45-45-45z"/></g></svg>